<svg width="512mm" height="512mm" viewBox="0 0 512 512" xmlns:xlink="http://www.w3.org/1999/xlink" xmlns="http://www.w3.org/2000/svg"><defs><linearGradient id="a"><stop style="stop-color:#ccc;stop-opacity:1" offset="0"/><stop style="stop-color:#f0f0f0;stop-opacity:1" offset=".989"/><stop style="stop-color:#ccc;stop-opacity:0" offset="1"/></linearGradient><linearGradient id="b"><stop style="stop-color:#470965;stop-opacity:1" offset="0"/><stop style="stop-color:#780faa;stop-opacity:1" offset="1"/></linearGradient><linearGradient xlink:href="#a" id="c" x1="474.872" y1="460.162" x2="-13.957" y2="-10.457" gradientUnits="userSpaceOnUse" gradientTransform="translate(-15.017 -15.017) scale(1.05866)"/><linearGradient xlink:href="#b" id="d" gradientUnits="userSpaceOnUse" gradientTransform="translate(-316.77 185.29) scale(.76949)" x1="989.907" y1="101.828" x2="498.341" y2="7.901"/></defs><rect style="opacity:1;fill:url(#c);fill-opacity:1;fill-rule:evenodd;stroke:none;stroke-width:.280544;stroke-linecap:round;stroke-linejoin:bevel;stroke-opacity:.308387" width="512" height="512" rx="61.662" ry="61.662"/><path style="font-variation-settings:normal;vector-effect:none;fill:url(#d);fill-opacity:1;stroke:#24043e;stroke-width:4.70876;stroke-linecap:butt;stroke-linejoin:miter;stroke-miterlimit:4;stroke-dasharray:none;stroke-dashoffset:0;stroke-opacity:1;-inkscape-stroke:none;stop-color:#000" d="M190.206 78.408c-3.502.31-6.175 3.941-5.675 7.375.079 20.97.021 41.94.045 62.911 5.958-4.683 11.295-10.272 15.23-16.769.428-1.153 2.059-1.667 2.996-.8l50.884 29.4c-17.685 10.212-35.37 20.42-53.054 30.633-1.383-4.628-1.747-9.57-3.818-13.979-1.767-2.768-5.978-3.904-8.68-1.829-2.34 1.664-3.258 4.746-2.881 7.508.906 21.066 1.767 42.136 2.88 63.191.07 1.554.68 3.097 1.904 4.098 2.003 1.875 5.38 2.307 7.586.535 1.942-1.36 2.81-3.651 3.675-5.755 6.252-13.32 16.03-24.704 27.109-34.263 17.55-15.004 39.556-24.811 62.513-27.485 11.24-1.36 22.646-1.114 33.855.409 1.418-.116 2.225 1.287 2.748 2.386 14.933 26.348 29.869 52.694 44.8 79.043-20.574 36.565-41.145 73.132-61.719 109.697h-65.567v-98.513h-61.393v96.814H129.2V258.61c-1.48-3.78-4.83-6.286-7.53-9.153L68.757 196.35v237.265h281.321l92.523-169.948-97.845-172.666h-71.078c10.081 17.792 20.165 35.583 30.245 53.377-22.537-3.916-44.697-10.951-64.618-22.326-15.84-9.032-30.05-21.228-40.43-36.293-1.575-2.117-2.71-4.639-4.792-6.328a6.07 6.07 0 0 0-3.877-1.023z"/></svg>